# xmcd
# 
# Track frame offsets:
#     150
#     14612
#     31498
#     46855
#     70793
#     91689
#     107394
#     128613
#     147422
#     162834
# 
# Disc length: 2482
# 
# Revision: 1
# Processed by: cddbd v1.5.2PL0 Copyright (c) Steve Scherf et al.
# Submitted via: fre:ac v1.0.31
# 
DISCID=7709b00a
DTITLE=NotThe Guess Who - The Future Is What It Used To Be
DYEAR=2018
DGENRE=Rock/Pop
TTITLE0=When We Were Young
TTITLE1=Runnin' Blind
TTITLE2=Talks All The Time
TTITLE3=Baby's Come Around
TTITLE4=Haunted
TTITLE5=In America
TTITLE6=Playin' On The Radio
TTITLE7=Give It A Try
TTITLE8=Good Girl
TTITLE9=Long Day
EXTD=
EXTT0=
EXTT1=
EXTT2=
EXTT3=
EXTT4=
EXTT5=
EXTT6=
EXTT7=
EXTT8=
EXTT9=
PLAYORDER=
